<?xml version="1.0" encoding="UTF-8" standalone="no"?>
<!DOCTYPE svg PUBLIC "-//W3C//DTD SVG 1.1//EN" "http://www.w3.org/Graphics/SVG/1.1/DTD/svg11.dtd">
<svg width="100%" height="100%" viewBox="0 0 256 256" version="1.1" xmlns="http://www.w3.org/2000/svg" xmlns:xlink="http://www.w3.org/1999/xlink" xml:space="preserve" xmlns:serif="http://www.serif.com/" style="fill-rule:evenodd;clip-rule:evenodd;stroke-linejoin:round;stroke-miterlimit:2;">
    <g transform="matrix(2.42229,0,0,2.42229,-17.2211,-174.519)">
        <path d="M22.45,144.653C19.447,144.653 16.793,143.935 14.486,142.499C12.18,141.062 10.374,139.093 9.068,136.591C7.763,134.089 7.11,131.206 7.11,127.942C7.11,124.678 7.763,121.784 9.068,119.26C10.374,116.736 12.18,114.766 14.486,113.352C16.793,111.938 19.447,111.231 22.45,111.231C24.321,111.231 26.051,111.546 27.64,112.177C29.228,112.808 30.555,113.689 31.622,114.821C32.688,115.952 33.373,117.258 33.678,118.737L33.678,137.146C33.373,138.625 32.688,139.931 31.622,141.062C30.555,142.194 29.228,143.075 27.64,143.706C26.051,144.337 24.321,144.653 22.45,144.653ZM25.322,133.425C26.932,133.425 28.227,132.914 29.206,131.891C30.185,130.868 30.675,129.552 30.675,127.942C30.675,126.854 30.457,125.907 30.022,125.102C29.587,124.297 28.967,123.655 28.162,123.176C27.357,122.698 26.432,122.458 25.388,122.458C24.343,122.458 23.418,122.698 22.613,123.176C21.808,123.655 21.166,124.308 20.688,125.135C20.209,125.962 19.969,126.897 19.969,127.942C19.969,128.986 20.198,129.922 20.655,130.749C21.112,131.575 21.754,132.228 22.581,132.707C23.407,133.186 24.321,133.425 25.322,133.425ZM30.283,144L30.283,135.383L32.046,127.55L30.283,119.782L30.283,111.883L42.751,111.883L42.751,144L30.283,144Z" style="fill:url(#_Linear1);fill-rule:nonzero;"/>
        <g transform="matrix(1,0,0,1,-3.45972,0)">
            <path d="M64.685,144.783C60.725,144.783 57.276,144.207 54.338,143.053C51.401,141.9 48.692,140.062 46.211,137.537L54.371,129.378C56.068,130.988 57.852,132.217 59.724,133.066C61.595,133.915 63.597,134.339 65.729,134.339C67.513,134.339 68.863,134.067 69.776,133.523C70.69,132.979 71.147,132.228 71.147,131.271C71.147,130.313 70.756,129.519 69.972,128.888C69.189,128.257 68.155,127.691 66.872,127.191C65.588,126.691 64.173,126.179 62.628,125.657C61.084,125.135 59.55,124.504 58.026,123.764C56.503,123.024 55.1,122.121 53.816,121.055C52.532,119.989 51.499,118.661 50.715,117.073C49.932,115.484 49.54,113.537 49.54,111.231C49.54,108.228 50.258,105.638 51.694,103.462C53.131,101.287 55.154,99.622 57.765,98.469C60.376,97.316 63.444,96.739 66.969,96.739C70.451,96.739 73.682,97.294 76.663,98.403C79.644,99.513 82.114,101.091 84.072,103.136L75.847,111.296C74.411,109.903 72.975,108.87 71.539,108.195C70.103,107.521 68.536,107.183 66.839,107.183C65.49,107.183 64.413,107.401 63.608,107.836C62.803,108.271 62.4,108.924 62.4,109.794C62.4,110.708 62.792,111.459 63.575,112.047C64.358,112.634 65.392,113.167 66.676,113.646C67.959,114.125 69.374,114.625 70.919,115.147C72.464,115.669 73.998,116.29 75.521,117.008C77.044,117.726 78.447,118.64 79.731,119.749C81.015,120.859 82.049,122.241 82.832,123.894C83.615,125.548 84.007,127.55 84.007,129.9C84.007,134.644 82.321,138.31 78.948,140.899C75.575,143.489 70.821,144.783 64.685,144.783Z" style="fill:url(#_Linear2);fill-rule:nonzero;"/>
        </g>
        <g transform="matrix(1,0,0,1,-7.18056,0)">
            <path d="M103.917,144.783C100.783,144.783 98.009,144.174 95.594,142.956C93.178,141.737 91.275,140.04 89.882,137.864C88.489,135.688 87.793,133.207 87.793,130.422L87.793,111.883L100.588,111.883L100.588,130.553C100.588,131.206 100.729,131.793 101.012,132.315C101.295,132.837 101.686,133.24 102.187,133.523C102.687,133.806 103.264,133.947 103.917,133.947C104.831,133.947 105.603,133.632 106.234,133.001C106.865,132.37 107.181,131.554 107.181,130.553L107.181,111.883L119.975,111.883L119.975,130.422C119.975,133.251 119.29,135.742 117.919,137.897C116.548,140.051 114.655,141.737 112.24,142.956C109.824,144.174 107.05,144.783 103.917,144.783Z" style="fill:url(#_Linear3);fill-rule:nonzero;"/>
        </g>
    </g>
    <defs>
        <linearGradient id="_Linear1" x1="0" y1="0" x2="1" y2="0" gradientUnits="userSpaceOnUse" gradientTransform="matrix(2.94187e-15,48.0444,-20.4515,1.2523e-15,66.9694,96.7389)"><stop offset="0" style="stop-color:rgb(248,237,85);stop-opacity:1"/><stop offset="1" style="stop-color:rgb(228,38,75);stop-opacity:1"/></linearGradient>
        <linearGradient id="_Linear2" x1="0" y1="0" x2="1" y2="0" gradientUnits="userSpaceOnUse" gradientTransform="matrix(2.94187e-15,48.0444,-20.4515,1.2523e-15,66.9694,96.7389)"><stop offset="0" style="stop-color:rgb(248,237,85);stop-opacity:1"/><stop offset="1" style="stop-color:rgb(228,38,75);stop-opacity:1"/></linearGradient>
        <linearGradient id="_Linear3" x1="0" y1="0" x2="1" y2="0" gradientUnits="userSpaceOnUse" gradientTransform="matrix(2.94187e-15,48.0444,-20.4515,1.2523e-15,66.9694,96.7389)"><stop offset="0" style="stop-color:rgb(248,237,85);stop-opacity:1"/><stop offset="1" style="stop-color:rgb(228,38,75);stop-opacity:1"/></linearGradient>
    </defs>
</svg>
